<?xml version="1.0" standalone="no"?>
<!DOCTYPE svg PUBLIC "-//W3C//DTD SVG 20010904//EN"
 "http://www.w3.org/TR/2001/REC-SVG-20010904/DTD/svg10.dtd">
<svg version="1.0" xmlns="http://www.w3.org/2000/svg"
 width="700.000000pt" height="700.000000pt" viewBox="0 0 700.000000 700.000000"
 preserveAspectRatio="xMidYMid meet">
<metadata>
Created by potrace 1.11, written by Peter Selinger 2001-2013
</metadata>
<g transform="translate(0.000000,700.000000) scale(0.100000,-0.100000)"
fill="#000000" stroke="none">
<path d="M0 3500 l0 -3500 3500 0 3500 0 0 3500 0 3500 -3500 0 -3500 0 0
-3500z m3920 2860 c123 -14 291 -52 432 -97 960 -303 1695 -1078 1938 -2043
130 -515 117 -1063 -36 -1568 -252 -832 -883 -1517 -1694 -1840 -183 -73 -409
-138 -565 -161 -235 -35 -651 -38 -915 -6 -558 66 -1160 369 -1595 800 -455
451 -752 1057 -835 1705 -42 321 -14 741 71 1066 75 291 230 642 387 879 283
426 655 759 1100 983 262 133 591 241 822 272 230 30 673 35 890 10z"/>
<path d="M3185 6239 c-457 -46 -919 -233 -1320 -533 -154 -115 -412 -373 -527
-526 -230 -306 -397 -649 -492 -1010 -52 -197 -67 -314 -73 -581 -9 -359 19
-587 102 -865 226 -749 736 -1353 1430 -1695 442 -217 790 -290 1315 -276 382
10 693 87 1050 258 318 153 557 325 800 575 444 458 706 1037 771 1704 14 148
7 439 -15 586 -135 912 -709 1701 -1531 2104 -88 43 -210 96 -272 118 -131 48
-357 106 -498 128 -119 19 -603 27 -740 13z m661 -687 c341 -87 630 -313 778
-609 14 -29 26 -57 26 -63 0 -6 -31 -10 -77 -11 -43 0 -121 -4 -173 -8 l-95
-8 -29 31 c-214 231 -311 297 -514 348 -73 19 -116 22 -262 23 -173 0 -176 0
-259 -32 -166 -64 -315 -184 -387 -313 -63 -112 -79 -180 -79 -335 0 -111 4
-152 19 -195 48 -142 141 -273 271 -384 86 -73 367 -258 377 -248 4 4 50 74
103 156 214 332 369 494 575 604 134 72 163 77 440 77 263 0 279 -2 405 -57
217 -94 410 -283 506 -493 119 -262 145 -576 74 -873 -83 -346 -282 -609 -589
-782 -54 -31 -60 -32 -71 -16 -16 21 -24 89 -27 228 l-2 106 124 129 c127 131
173 195 217 303 45 114 55 188 50 390 -4 168 -7 192 -30 258 -34 94 -102 197
-190 283 -120 119 -274 178 -467 178 -197 1 -353 -76 -523 -259 -130 -140
-257 -331 -257 -386 0 -40 23 -61 203 -183 291 -198 441 -350 540 -547 66
-131 72 -164 70 -404 -1 -240 -11 -308 -64 -436 -120 -288 -379 -498 -711
-577 -81 -19 -122 -22 -318 -22 -212 0 -231 2 -332 27 -204 52 -360 130 -499
250 -81 69 -224 245 -269 330 -31 58 -32 62 -15 74 21 16 62 22 209 33 l109 8
90 -94 c110 -115 196 -181 303 -234 116 -56 187 -69 396 -69 198 0 256 9 343
53 255 128 388 325 402 597 6 133 -12 225 -68 340 -62 126 -199 259 -421 408
-92 62 -171 112 -175 112 -4 -1 -41 -56 -81 -123 -105 -175 -194 -296 -300
-409 -108 -113 -195 -181 -303 -238 -129 -67 -171 -74 -439 -75 -260 0 -296 5
-418 61 -281 128 -478 373 -565 702 -28 111 -30 128 -31 312 -1 164 3 212 22
306 39 195 107 354 205 482 121 157 437 405 472 370 7 -7 24 -184 26 -277 l2
-83 -68 -50 c-166 -122 -265 -273 -316 -484 -18 -72 -22 -118 -22 -239 0 -133
3 -160 27 -238 33 -111 72 -187 132 -263 136 -170 308 -255 514 -255 154 0
284 46 415 146 98 76 241 243 357 419 55 84 58 90 42 107 -9 10 -80 62 -158
116 -196 135 -296 216 -401 324 -143 148 -202 247 -247 414 -96 358 9 758 263
1001 161 153 342 247 549 283 30 5 159 8 285 7 192 -3 243 -7 311 -24z"/>
</g>
</svg>
